<svg width="26" height="26" viewBox="0 0 26 26" fill="none" xmlns="http://www.w3.org/2000/svg">
<g clip-path="url(#clip0_1579_767)">
<path d="M20.298 8.38689L21.7149 7.56036C18.6493 2.29393 12.0415 0.282044 6.56113 2.94647V0.930176H4.9212V5.84997H9.84099V4.21004H7.74598C12.3848 2.24227 17.7631 4.032 20.298 8.38689Z" fill="#253D4E"/>
<path d="M5.33116 21.1635C1.52924 18.0758 0.528575 12.686 2.96884 8.43935L1.54702 7.61938C-1.2363 12.4661 -0.183154 18.6069 4.05611 22.2492H2.0513V23.8891H6.97109V18.9693H5.33116V21.1635Z" fill="#253D4E"/>
<path d="M22.5208 11.2355L19.0425 14.7146L20.202 15.874L21.5959 14.4801C21.0492 19.5603 16.7683 23.4158 11.6588 23.43V25.0699C17.7465 25.0539 22.7966 20.3557 23.2514 14.2849L24.8405 15.874L25.9999 14.7146L22.5208 11.2355Z" fill="#253D4E"/>
</g>
<defs>
<clipPath id="clip0_1579_767">
<rect width="26" height="26" fill="white"/>
</clipPath>
</defs>
</svg>
